<?xml version="1.0" standalone="no"?>
<!DOCTYPE svg PUBLIC "-//W3C//DTD SVG 20010904//EN"
 "http://www.w3.org/TR/2001/REC-SVG-20010904/DTD/svg10.dtd">
<svg version="1.0" xmlns="http://www.w3.org/2000/svg"
 width="2401.000000pt" height="1255.000000pt" viewBox="0 0 2401.000000 1255.000000"
 preserveAspectRatio="xMidYMid meet">

<g transform="translate(0.000000,1255.000000) scale(0.100000,-0.100000)"
fill="#000000" stroke="none">
<path d="M10513 10710 c-96 -19 -183 -93 -229 -194 -20 -44 -28 -80 -32 -146
-9 -166 53 -290 178 -359 62 -35 69 -36 165 -36 87 0 107 3 156 26 73 35 125
87 163 168 29 62 31 73 31 176 0 100 -3 116 -29 172 -29 64 -97 138 -152 166
-64 33 -166 43 -251 27z m185 -147 c67 -50 97 -129 90 -243 -9 -154 -94 -235
-224 -215 -62 9 -126 69 -144 135 -16 56 -16 151 -1 208 14 49 63 109 106 129
43 19 138 12 173 -14z"/>
<path d="M12800 10618 c0 -46 9 -153 20 -238 11 -85 20 -161 20 -167 0 -8 14
-13 38 -13 l38 0 17 143 c9 78 17 190 17 250 l0 107 -75 0 -75 0 0 -82z"/>
<path d="M11196 10506 c-59 -22 -108 -67 -138 -126 -52 -100 -33 -246 40 -323
52 -55 98 -72 197 -72 73 0 98 4 130 22 91 49 135 127 135 243 0 116 -45 196
-135 243 -52 26 -173 33 -229 13z m185 -134 c52 -58 51 -187 -1 -245 -26 -29
-34 -32 -85 -32 -51 0 -59 3 -85 32 -66 74 -45 240 34 274 11 5 41 7 66 5 34
-3 51 -11 71 -34z"/>
<path d="M11865 10505 c-16 -9 -40 -26 -52 -37 l-23 -21 0 32 0 32 -67 -3 -68
-3 -3 -347 -2 -348 75 0 75 0 0 122 0 122 28 -26 c78 -75 216 -61 291 28 98
119 73 344 -47 428 -35 25 -55 31 -110 34 -48 2 -76 -2 -97 -13z m93 -106 c49
-17 76 -70 76 -148 1 -101 -44 -161 -119 -161 -75 0 -119 60 -120 160 0 123
65 183 163 149z"/>
<path d="M12368 10506 c-57 -20 -83 -41 -102 -79 -18 -39 -21 -84 -7 -120 16
-41 69 -70 181 -99 71 -18 110 -34 122 -48 42 -51 -40 -106 -122 -81 -33 10
-45 20 -56 47 -14 34 -15 34 -79 34 -60 0 -65 -2 -65 -22 0 -42 47 -105 97
-130 41 -19 63 -23 148 -23 84 0 107 4 142 22 54 30 85 74 90 132 8 90 -45
135 -197 167 -99 21 -139 48 -121 81 24 46 132 40 160 -8 15 -27 20 -29 79
-29 56 0 62 2 62 20 0 53 -63 122 -128 140 -51 14 -159 12 -204 -4z"/>
<path d="M16025 10281 c-8 -27 -71 -33 -88 -9 -11 17 -14 17 -35 3 -15 -11
-21 -23 -17 -38 3 -13 -3 -31 -14 -44 -23 -28 -47 -26 -151 8 -100 32 -229 33
-310 1 -163 -64 -258 -205 -275 -409 l-7 -80 -52 9 c-163 26 -329 -87 -361
-247 -4 -20 0 -15 13 16 47 113 127 187 227 210 51 11 148 6 171 -9 5 -4 16
-32 22 -62 17 -77 65 -157 106 -177 65 -30 125 12 111 78 -10 43 -87 118 -153
149 -64 30 -69 44 -53 154 40 289 292 446 568 354 60 -20 68 -26 68 -48 0 -15
7 -26 17 -28 24 -5 31 -63 8 -83 -15 -13 -16 -18 -4 -41 10 -18 19 -25 33 -21
30 8 73 -26 67 -53 -5 -18 -1 -23 21 -29 22 -5 31 -2 42 14 16 25 68 28 85 5
17 -22 69 1 61 27 -8 25 25 68 51 69 27 0 42 46 21 64 -21 17 -29 72 -12 86
21 18 -2 63 -29 56 -25 -6 -73 33 -68 56 2 12 -6 21 -23 28 -34 13 -33 13 -40
-9z m40 -123 c15 -14 28 -38 31 -59 5 -30 1 -42 -23 -69 -59 -66 -158 -28
-158 61 0 33 6 46 28 65 36 31 87 32 122 2z m-854 -498 c53 -28 114 -84 129
-119 23 -57 -31 -100 -84 -66 -27 18 -80 118 -91 173 -8 38 -6 38 46 12z"/>
<path d="M15959 10157 c-67 -51 -35 -147 49 -147 38 0 82 37 82 70 0 29 -26
76 -45 84 -26 10 -69 6 -86 -7z m92 -15 c48 -40 17 -122 -46 -122 -53 0 -85
52 -60 100 23 44 67 53 106 22z"/>
<path d="M8189 10241 c-8 -23 -18 -29 -61 -38 -49 -10 -53 -9 -71 13 -18 24
-19 24 -49 7 -37 -22 -43 -35 -28 -62 9 -18 6 -28 -19 -64 -26 -38 -34 -43
-59 -39 -25 3 -30 0 -36 -25 -4 -15 -9 -35 -12 -44 -3 -11 5 -19 28 -25 30 -9
34 -14 40 -58 6 -44 4 -51 -18 -68 l-24 -19 22 -39 c22 -37 23 -38 50 -24 27
14 31 13 72 -15 37 -26 42 -34 38 -60 -4 -27 -1 -30 34 -40 52 -15 52 -15 59
18 5 26 11 29 58 35 46 6 54 5 69 -14 l17 -22 40 23 c38 21 39 23 27 47 -12
23 -10 29 17 69 24 33 37 43 58 43 18 0 29 6 33 18 2 9 7 27 11 40 5 19 1 24
-23 33 -26 9 -30 16 -35 62 -5 44 -2 55 15 69 l20 18 -21 34 c-12 18 -21 36
-21 39 0 4 32 16 71 28 90 27 199 23 277 -11 115 -50 192 -180 192 -325 l0
-63 -44 -26 c-74 -43 -122 -169 -80 -210 48 -49 102 11 134 149 15 66 17 70
45 73 40 4 112 -35 147 -79 16 -20 40 -62 53 -95 27 -64 34 -62 11 4 -38 106
-105 170 -188 181 l-53 6 -7 80 c-8 94 -18 131 -52 190 -94 159 -325 208 -509
108 l-52 -29 -43 30 c-32 22 -42 36 -42 57 0 23 -6 28 -41 37 -39 10 -41 9
-50 -17z m49 -191 c19 -12 40 -37 49 -58 21 -50 2 -107 -46 -139 -94 -63 -214
27 -178 134 14 44 66 83 111 83 17 0 46 -9 64 -20z m713 -352 c-16 -72 -48
-136 -73 -144 -44 -14 -51 57 -12 123 23 39 81 89 92 78 2 -2 -1 -28 -7 -57z"/>
<path d="M8128 10013 c-34 -21 -38 -28 -38 -66 0 -39 3 -44 40 -65 l40 -23 40
23 c37 22 40 26 40 69 0 43 -2 46 -42 66 l-43 20 -37 -24z m62 -49 c11 -12 10
-18 -3 -32 -16 -15 -18 -15 -34 0 -13 14 -14 20 -3 32 7 9 16 16 20 16 4 0 13
-7 20 -16z"/>
<path d="M12800 10065 l0 -75 80 0 80 0 0 75 0 75 -80 0 -80 0 0 -75z"/>
<path d="M11450 9683 c-444 -48 -744 -262 -893 -638 -77 -195 -101 -343 -100
-620 1 -384 59 -713 174 -979 21 -50 36 -92 34 -94 -4 -4 -190 10 -311 24
l-51 6 14 56 c63 267 -20 620 -194 826 -176 209 -453 321 -746 302 -290 -19
-530 -123 -676 -294 l-40 -47 -1 327 0 327 53 10 c295 59 875 145 1255 186 34
4 62 10 62 13 -2 45 -50 455 -53 459 -6 5 -218 -18 -477 -53 -102 -14 -201
-27 -220 -29 -149 -17 -866 -150 -1109 -206 l-94 -22 7 -446 c4 -245 11 -536
15 -646 6 -145 5 -202 -3 -207 -8 -6 -7 -8 2 -8 8 0 12 -18 12 -57 0 -32 3
-94 6 -138 l7 -81 201 47 c110 26 235 55 278 64 l76 17 36 58 c45 73 140 161
208 193 117 55 299 81 410 58 231 -48 388 -257 388 -514 0 -148 -56 -285 -159
-388 -102 -102 -222 -149 -376 -149 -192 0 -339 89 -421 254 -20 41 -41 73
-48 71 -6 -2 -65 -16 -131 -30 -66 -14 -196 -44 -288 -67 l-169 -40 7 -27 c12
-50 71 -176 108 -233 50 -75 198 -214 278 -261 87 -51 205 -95 319 -120 128
-27 369 -29 525 -3 394 64 691 275 867 614 32 62 38 70 34 42 -11 -66 -56
-455 -56 -480 0 -14 -4 -31 -9 -39 -5 -7 -87 -30 -192 -53 -101 -21 -185 -40
-186 -42 -2 -1 -7 -215 -12 -475 -5 -260 -11 -474 -13 -476 -2 -2 -52 6 -113
16 -60 10 -113 19 -116 19 -4 0 -12 -21 -18 -46 -25 -97 -87 -188 -138 -200
-35 -9 -102 4 -138 26 -49 30 -70 88 -70 192 0 48 -2 88 -5 88 -3 0 -61 9
-129 20 -68 11 -126 19 -128 16 -2 -2 -7 -44 -10 -92 -12 -212 77 -395 226
-465 l50 -24 -6 -160 c-13 -348 47 -645 166 -828 54 -82 162 -186 246 -236
118 -71 327 -131 456 -131 44 0 48 -2 53 -27 14 -69 28 -194 23 -200 -3 -3
-20 0 -38 6 -59 21 -139 14 -204 -18 -33 -16 -73 -41 -88 -56 -26 -25 -31 -26
-53 -14 -19 10 -24 19 -20 35 5 18 0 24 -26 33 -39 14 -35 14 -41 -8 -7 -27
-85 -38 -102 -14 -11 15 -17 15 -40 5 -22 -10 -26 -17 -21 -37 9 -37 -30 -88
-61 -80 -19 4 -25 0 -33 -20 -14 -36 -13 -39 13 -50 31 -14 37 -79 8 -96 -18
-12 -18 -15 -5 -41 12 -22 19 -27 42 -23 36 7 83 -33 75 -64 -4 -16 1 -23 23
-31 24 -9 31 -8 44 8 8 11 32 23 52 26 31 6 39 3 48 -14 10 -19 12 -19 41 -5
23 12 29 21 24 36 -9 28 38 89 64 82 14 -3 21 3 29 26 9 26 8 32 -7 41 -24 13
-33 79 -14 101 11 13 11 22 2 43 -10 21 -17 24 -37 19 -72 -18 42 78 120 102
66 19 111 18 167 -3 36 -14 46 -23 53 -50 7 -25 15 -34 38 -39 53 -10 56 -26
20 -98 -44 -86 -51 -148 -20 -180 42 -44 93 -27 110 35 12 43 1 131 -20 171
-9 15 -8 24 1 35 15 18 59 14 69 -6 5 -8 25 -170 45 -360 20 -190 39 -357 42
-371 l5 -27 326 -7 c365 -8 1748 -2 1758 8 12 12 33 231 23 238 -6 3 -118 43
-250 89 -236 82 -240 84 -235 109 3 14 17 136 32 271 25 221 30 248 52 278 53
73 134 111 206 98 l34 -6 4 -103 c4 -122 20 -157 69 -157 25 0 32 6 45 37 27
63 2 149 -58 205 l-30 27 17 58 c34 118 93 197 179 240 39 20 71 27 137 31 50
3 89 1 92 -5 5 -8 -135 -1053 -158 -1179 -5 -29 -3 -32 26 -38 18 -3 33 -5 34
-4 2 2 21 131 44 288 43 292 126 823 137 873 7 32 17 31 71 -6 l32 -22 -31
-32 -32 -33 26 -27 c21 -23 24 -31 14 -46 -9 -14 -6 -21 17 -40 24 -19 27 -27
21 -55 -9 -42 -19 -47 -52 -27 -21 12 -20 9 7 -14 39 -34 37 -40 -11 -50 -31
-6 -33 -9 -30 -41 6 -63 11 -70 50 -70 33 -1 40 -5 65 -47 30 -49 30 -46 -1
-104 -1 -4 15 -21 37 -39 l41 -31 23 27 23 27 59 -15 c54 -14 61 -18 69 -47 9
-30 12 -32 39 -27 16 3 38 6 48 6 15 0 19 8 19 40 0 27 4 40 13 40 8 0 32 13
54 29 38 28 41 28 67 12 27 -16 28 -15 56 19 35 42 36 51 10 68 -21 13 -26 38
-11 61 7 11 16 11 57 -3 64 -22 67 -14 4 13 -45 20 -51 25 -48 49 2 18 10 28
23 30 32 6 38 18 31 66 -7 44 -8 46 -41 46 -29 0 -37 5 -51 33 -9 17 -23 40
-32 50 -14 16 -14 20 1 47 l17 28 -42 32 -43 31 -20 -25 c-20 -25 -21 -25 -82
-13 -45 8 -63 16 -66 29 -6 22 -8 21 78 48 95 29 238 37 332 17 221 -47 454
-247 681 -584 l41 -61 -45 -37 c-148 -121 -183 -325 -95 -555 36 -93 26 -92
153 -26 62 33 114 60 116 61 1 1 -9 36 -23 78 -31 92 -32 160 -5 205 24 38 88
71 141 72 46 0 118 -45 155 -100 64 -92 44 -90 177 -20 l117 62 -21 36 c-38
64 -101 142 -143 179 -98 84 -236 126 -348 105 -34 -6 -62 -10 -63 -9 0 1 -26
41 -57 88 -137 209 -316 399 -477 507 -147 99 -269 136 -441 135 -171 -1 -336
-51 -488 -149 l-69 -44 -55 36 -55 36 12 65 c9 46 9 66 1 71 -6 4 -60 28 -121
53 l-110 46 2 76 2 76 -32 6 c-87 15 -238 26 -494 37 -219 9 -283 15 -283 25
0 10 -77 13 -390 13 -324 0 -390 -2 -390 -14 0 -15 -104 -21 -560 -32 -135 -3
-253 -8 -262 -10 -14 -4 -18 -20 -20 -91 l-3 -85 -115 -46 c-63 -25 -117 -46
-118 -48 -2 -1 6 -66 18 -144 12 -78 20 -143 18 -145 -8 -7 -157 16 -225 35
-190 52 -359 184 -436 341 -43 88 -80 224 -96 354 -11 94 -15 404 -5 441 5 18
15 22 76 27 149 13 265 100 343 259 28 58 44 82 47 71 3 -13 46 -33 142 -67
76 -27 140 -55 142 -61 3 -7 -2 -101 -10 -211 -8 -109 -14 -199 -13 -200 1 -1
117 -14 257 -28 140 -15 379 -42 530 -61 151 -19 278 -35 282 -35 5 0 8 -13 8
-30 l0 -30 213 -1 c116 0 230 -4 252 -8 26 -6 -51 -9 -212 -10 l-253 -1 0 -30
0 -30 389 0 c282 0 390 3 393 11 3 8 88 -2 283 -35 306 -52 760 -134 787 -142
12 -4 19 4 26 28 5 18 31 108 58 200 l48 168 163 0 c90 0 163 2 163 4 0 2 81
237 180 522 99 285 178 524 176 530 -2 6 -75 55 -161 109 -112 71 -155 103
-152 114 2 9 30 107 62 218 l58 201 41 -15 c48 -17 209 -54 214 -48 2 1 -6 33
-17 70 -39 126 -24 275 42 399 45 87 190 229 290 285 392 220 946 178 1262
-97 227 -198 280 -476 135 -716 -45 -75 -168 -192 -256 -244 -252 -149 -585
-191 -891 -111 -79 21 -240 91 -291 128 l-29 20 -84 -24 c-96 -27 -91 -33 6
-9 l65 16 123 -61 c172 -86 276 -112 484 -118 190 -6 301 9 452 63 136 48 241
114 341 214 131 130 179 241 180 411 0 235 -144 435 -411 569 -56 27 -107 50
-115 50 -25 0 -26 25 -4 80 34 86 97 320 124 458 140 715 -92 1211 -662 1416
-332 119 -692 126 -960 19 -320 -127 -548 -435 -646 -874 -48 -214 -60 -343
-61 -629 0 -278 5 -327 51 -513 41 -165 116 -332 188 -422 48 -60 51 -66 24
-56 -62 23 -614 154 -743 175 -79 14 -79 11 -24 79 61 75 178 308 218 434 77
237 114 504 115 823 1 246 -5 308 -49 475 -119 456 -435 725 -920 784 -84 10
-276 12 -355 4z m255 -473 c33 -5 89 -24 125 -42 208 -102 300 -341 300 -782
0 -606 -93 -943 -298 -1079 -68 -46 -136 -61 -248 -55 -151 7 -238 63 -326
210 -100 168 -143 396 -154 828 -10 332 15 512 91 666 98 201 281 292 510 254z
m2577 -224 c188 -40 311 -161 364 -357 25 -95 23 -355 -5 -514 -33 -185 -89
-419 -129 -539 l-37 -110 -69 -18 c-201 -54 -417 -205 -498 -348 -13 -22 -28
-40 -35 -40 -28 0 -106 42 -147 80 -148 137 -198 414 -151 835 46 419 113 664
225 823 117 167 280 230 482 188z m-3722 -1671 c286 -24 613 -65 626 -78 3 -2
-26 -2 -63 0 -37 3 -224 15 -415 27 l-346 21 -12 -80 c-17 -125 -89 -553 -105
-625 l-14 -65 5 80 c6 83 42 402 70 613 l17 122 31 0 c17 0 110 -7 206 -15z
m450 -861 c85 -19 101 -34 22 -21 -31 5 -97 7 -147 4 -223 -13 -398 -134 -522
-361 -41 -75 -36 -33 9 64 69 152 208 274 361 315 70 19 193 18 277 -1z m1684
-239 c61 -16 159 -55 153 -61 -2 -2 -39 5 -82 16 -220 56 -432 -1 -593 -159
-32 -32 -73 -79 -91 -104 -18 -26 -34 -47 -37 -47 -3 0 12 32 32 71 69 131
212 245 355 283 71 19 191 20 263 1z m-1942 -14 c4 -3 2 -28 -3 -55 -11 -58
-8 -61 61 -70 l47 -6 -10 -56 c-5 -30 -8 -57 -6 -58 2 -2 27 -7 56 -11 l52 -7
6 39 c13 76 12 75 63 67 26 -3 51 -7 57 -8 5 0 13 25 18 57 10 65 0 60 98 41
31 -6 31 -6 24 -57 -4 -29 -10 -55 -14 -60 -4 -4 -29 -3 -56 2 -58 11 -60 9
-69 -61 -6 -40 -10 -48 -24 -44 -9 2 -36 7 -58 11 l-42 6 -7 -51 c-4 -28 -5
-53 -3 -56 3 -2 26 -8 52 -13 26 -5 49 -11 52 -14 3 -3 1 -28 -4 -56 -5 -28
-7 -53 -3 -55 3 -2 30 -7 58 -11 47 -6 52 -9 49 -28 -3 -12 -8 -39 -11 -60
l-6 -39 -52 7 c-29 4 -56 10 -60 15 -5 4 -4 30 1 58 10 57 13 55 -65 67 -37 6
-42 10 -39 28 3 12 7 38 11 59 l6 36 -50 7 c-28 4 -54 4 -59 1 -5 -3 -12 -28
-16 -56 l-7 -51 -37 6 c-88 14 -84 12 -77 58 12 75 14 79 46 73 16 -3 43 -9
59 -12 24 -5 30 -2 30 13 0 10 3 35 6 55 6 36 6 37 -32 43 -78 13 -76 11 -68
75 l6 57 -57 8 -56 7 6 41 c12 81 11 79 68 72 29 -4 55 -10 59 -14z m-79 -458
c8 -5 0 -99 -9 -114 -3 -6 -105 9 -113 16 -2 2 0 29 4 60 l7 57 51 -7 c29 -4
56 -10 60 -12z m1932 -114 c4 -5 -63 -290 -69 -297 -3 -2 -30 2 -61 8 -54 11
-56 13 -50 37 3 14 20 83 36 153 l30 128 55 -13 c30 -7 57 -14 59 -16z m-1480
-1109 c-33 -5 -204 -18 -380 -30 -176 -12 -331 -24 -343 -26 l-24 -5 4 -214
c1 -118 0 -205 -4 -194 -9 22 -33 427 -27 434 3 2 137 11 299 20 369 19 412
21 480 22 l55 0 -60 -7z m1750 -267 c-11 -83 -5 -78 -107 -78 -81 0 -100 -4
-149 -28 -93 -45 -156 -125 -194 -248 l-18 -55 -61 0 c-70 0 -111 -17 -168
-72 -23 -22 -38 -30 -38 -22 1 36 37 310 41 313 5 5 681 235 692 236 5 1 5
-20 2 -46z m350 -233 c-3 -5 -12 -10 -18 -10 -7 0 -6 4 3 10 19 12 23 12 15 0z
m-1890 -10 c20 -8 24 -15 20 -32 -8 -32 53 -81 89 -72 20 5 27 0 41 -26 16
-30 16 -33 -2 -45 -28 -20 -20 -103 12 -115 22 -8 23 -12 12 -45 -9 -31 -15
-36 -34 -32 -34 6 -89 -63 -73 -93 9 -18 6 -22 -25 -37 -34 -16 -36 -16 -49 3
-11 15 -23 19 -60 16 -39 -3 -47 -8 -52 -28 -7 -27 -9 -28 -53 -13 -28 10 -31
15 -26 38 4 21 -1 31 -30 54 -28 22 -39 26 -54 17 -28 -14 -29 -14 -47 22 -16
31 -16 32 5 49 15 13 21 28 21 59 0 37 -3 42 -31 52 -20 7 -28 15 -25 25 4 8
9 25 12 38 5 20 11 23 33 19 23 -5 32 0 55 30 22 30 25 39 16 57 -13 24 -15
21 27 43 31 15 33 15 47 -5 13 -19 21 -21 60 -15 32 5 47 13 51 27 7 21 21 24
60 9z m2080 -154 c27 -18 49 -49 60 -84 6 -22 5 -23 -17 -17 -12 4 -37 23 -54
43 -30 34 -33 36 -92 33 -70 -3 -82 11 -29 35 38 17 98 12 132 -10z m-160 -46
c3 -5 -1 -26 -10 -46 -15 -36 -15 -37 17 -79 l32 -41 49 7 c57 9 58 10 73 52
11 31 35 39 56 18 13 -12 -26 -75 -61 -98 -48 -32 -98 -30 -149 7 -52 38 -71
90 -53 150 11 38 33 52 46 30z m-775 -70 c37 -73 31 -150 -12 -158 -25 -5 -39
31 -45 113 -9 116 12 133 57 45z m878 2 c4 -28 -24 -40 -45 -19 -14 13 -14 19
-3 32 18 22 44 15 48 -13z m-1772 -86 c8 -21 64 -32 75 -15 11 18 60 -8 52
-28 -8 -21 17 -62 41 -65 25 -4 34 -37 14 -52 -21 -15 -28 -63 -12 -77 11 -9
11 -15 -2 -34 -9 -14 -21 -22 -30 -18 -22 8 -63 -17 -66 -41 -3 -22 -48 -37
-48 -16 0 19 -52 32 -77 19 -27 -14 -58 4 -48 29 8 21 -22 62 -45 62 -11 0
-20 4 -20 9 0 5 -3 16 -6 24 -3 10 2 18 15 22 24 7 28 44 9 74 -16 26 7 55 36
47 24 -6 56 19 56 45 0 15 12 23 43 28 4 0 10 -5 13 -13z m-1886 -161 c32 -17
60 -61 60 -95 0 -61 -65 -117 -124 -106 -100 19 -121 156 -32 200 39 20 60 20
96 1z m594 -148 c1 -47 -3 -62 -19 -73 -26 -20 -46 -14 -64 17 -12 22 -12 33
-2 72 7 25 22 60 34 79 l20 33 15 -35 c9 -19 16 -61 16 -93z"/>
<path d="M11169 3842 c-25 -23 -33 -38 -36 -78 -5 -46 -2 -54 27 -87 38 -44
82 -55 133 -33 40 16 77 67 77 104 0 38 -30 92 -61 107 -47 25 -104 19 -140
-13z m131 3 c37 -19 50 -43 50 -95 0 -107 -149 -141 -195 -45 -20 43 -19 63 5
103 31 51 85 65 140 37z"/>
<path d="M11213 3835 c-61 -26 -72 -97 -23 -147 27 -26 36 -30 67 -25 46 8 72
33 79 79 5 29 1 40 -22 66 -36 38 -60 45 -101 27z"/>
<path d="M11544 3538 l-19 -23 25 20 c14 11 27 21 29 22 2 2 0 3 -6 3 -5 0
-18 -10 -29 -22z"/>
<path d="M11621 3557 c2 -1 15 -11 29 -22 l25 -20 -19 23 c-11 12 -24 22 -29
22 -6 0 -8 -1 -6 -3z"/>
<path d="M11555 3520 c-13 -14 -16 -28 -11 -50 4 -23 3 -29 -7 -24 -6 4 -3 -2
7 -14 22 -26 35 -30 15 -5 -12 15 -12 16 6 8 11 -4 27 -8 35 -8 8 0 24 4 35 8
18 8 19 7 5 -11 -14 -19 -14 -19 8 0 22 19 30 32 12 21 -6 -4 -7 6 -4 25 8 38
-17 70 -56 70 -15 0 -35 -9 -45 -20z"/>
<path d="M11522 3485 c0 -16 2 -22 5 -12 2 9 2 23 0 30 -3 6 -5 -1 -5 -18z"/>
<path d="M11672 3485 c0 -16 2 -22 5 -12 2 9 2 23 0 30 -3 6 -5 -1 -5 -18z"/>
<path d="M9586 3459 c-15 -17 -26 -43 -26 -59 0 -44 44 -90 87 -90 47 0 72 16
89 56 40 95 -84 172 -150 93z m121 -1 c33 -31 32 -90 -3 -117 -37 -29 -79 -27
-109 5 -70 76 37 183 112 112z"/>
<path d="M9241 9514 c0 -11 3 -14 6 -6 3 7 2 16 -1 19 -3 4 -6 -2 -5 -13z"/>
<path d="M14702 9420 c0 -14 2 -19 5 -12 2 6 2 18 0 25 -3 6 -5 1 -5 -13z"/>
<path d="M7869 7926 c-87 -31 -143 -85 -156 -149 -4 -21 -10 -26 -22 -21 -33
13 -200 17 -248 5 -108 -27 -195 -116 -234 -240 -19 -64 -23 -151 -9 -206 5
-19 6 -5 3 36 -13 163 61 305 191 369 56 28 74 32 147 31 46 0 102 -6 124 -13
34 -11 41 -18 49 -52 12 -54 90 -132 140 -142 42 -7 76 15 76 49 0 29 -66 87
-142 124 -66 32 -67 33 -58 64 21 73 80 119 185 145 39 10 43 12 20 13 -16 0
-46 -6 -66 -13z m-103 -222 c53 -22 121 -71 135 -96 9 -16 8 -24 -4 -35 -34
-34 -129 30 -162 110 -8 20 -14 37 -11 37 2 0 21 -7 42 -16z"/>
<path d="M7211 7264 c0 -11 3 -14 6 -6 3 7 2 16 -1 19 -3 4 -6 -2 -5 -13z"/>
<path d="M7281 7222 c-13 -25 -77 -28 -90 -5 -7 13 -12 13 -32 3 -33 -17 -32
-16 -21 -37 14 -25 -27 -74 -56 -67 -15 4 -21 -1 -26 -21 -8 -30 -1 -45 20
-45 20 0 19 -69 -2 -85 -24 -17 -1 -59 28 -52 32 9 76 -29 70 -59 -3 -17 0
-24 11 -24 8 0 22 -3 30 -6 10 -3 18 2 22 15 8 25 66 29 85 7 17 -22 63 0 56
27 -7 27 33 79 55 72 12 -4 20 3 28 26 9 27 8 32 -9 36 -16 4 -20 14 -20 44 0
26 5 42 15 45 24 10 -8 64 -34 57 -27 -7 -70 27 -71 55 0 12 -4 22 -9 22 -5 0
-16 3 -24 6 -9 3 -20 -2 -26 -14z m14 -106 c39 -17 55 -42 55 -89 0 -43 -46
-87 -90 -87 -44 0 -90 44 -90 87 0 46 15 72 53 88 40 18 32 17 72 1z"/>
<path d="M7202 7087 c-47 -50 -10 -137 58 -137 69 0 107 91 57 138 -32 30 -87
29 -115 -1z m108 -7 c29 -29 26 -74 -6 -99 -15 -12 -34 -21 -44 -21 -10 0 -29
9 -44 21 -50 40 -21 119 44 119 17 0 39 -9 50 -20z"/>
<path d="M14070 6790 l0 -150 100 0 c100 0 100 0 100 25 0 23 -3 24 -72 27
l-73 3 -3 38 -3 37 65 0 c64 0 66 1 66 25 0 24 -2 25 -65 25 l-65 0 0 35 0 35
75 0 c73 0 75 1 75 25 l0 25 -100 0 -100 0 0 -150z"/>
<path d="M14320 6789 l0 -150 28 3 c25 3 27 7 30 51 3 44 5 47 30 47 23 0 33
-9 57 -50 26 -44 33 -50 63 -50 l33 0 -31 56 -32 55 20 22 c35 38 33 103 -4
141 -25 24 -33 26 -110 26 l-84 0 0 -151z m154 79 c20 -29 20 -34 -4 -58 -12
-12 -33 -20 -55 -20 l-35 0 0 50 0 50 39 0 c30 0 44 -6 55 -22z"/>
<path d="M14600 6789 l0 -150 28 3 c25 3 27 7 30 51 3 44 5 47 30 47 23 0 33
-9 57 -50 26 -44 33 -50 63 -50 l34 0 -23 38 c-13 20 -27 44 -33 53 -7 12 -4
24 12 44 32 41 30 104 -4 139 -25 24 -33 26 -110 26 l-84 0 0 -151z m154 80
c27 -38 -5 -79 -61 -79 -33 0 -33 0 -33 50 l0 50 39 0 c29 0 44 -6 55 -21z"/>
<path d="M14920 6914 c-40 -34 -60 -74 -60 -119 0 -110 109 -185 204 -140 99
47 114 180 30 255 -29 25 -43 30 -89 30 -43 0 -59 -5 -85 -26z m144 -55 c55
-65 19 -163 -59 -163 -29 0 -43 7 -61 28 -52 59 -13 166 61 166 25 0 40 -8 59
-31z"/>
<path d="M15192 6793 l3 -148 28 -3 c26 -3 27 -2 27 47 0 50 1 51 30 51 25 0
35 -8 61 -50 26 -42 36 -50 60 -50 16 0 29 3 29 8 0 4 -13 29 -29 55 l-28 49
23 25 c35 38 33 96 -5 134 -28 28 -34 29 -115 29 l-87 0 3 -147z m156 85 c17
-17 15 -54 -4 -73 -11 -10 -29 -15 -53 -13 -35 3 -36 4 -39 51 l-3 47 43 0
c24 0 49 -5 56 -12z"/>
<path d="M13802 6265 c-15 -34 -15 -35 6 -34 10 0 12 3 5 6 -10 3 -10 10 -2
25 6 11 9 22 6 24 -2 2 -9 -7 -15 -21z"/>
<path d="M13918 6263 c7 -3 16 -2 19 1 4 3 -2 6 -13 5 -11 0 -14 -3 -6 -6z"/>
<path d="M13878 6253 c7 -3 16 -2 19 1 4 3 -2 6 -13 5 -11 0 -14 -3 -6 -6z"/>
<path d="M23188 5613 c6 -2 18 -2 25 0 6 3 1 5 -13 5 -14 0 -19 -2 -12 -5z"/>
<path d="M23188 5583 c7 -3 16 -2 19 1 4 3 -2 6 -13 5 -11 0 -14 -3 -6 -6z"/>
<path d="M23243 5528 l1 -38 61 2 60 1 -55 6 c-51 6 -55 8 -62 36 -6 28 -6 27
-5 -7z"/>
<path d="M23252 5428 c-17 -17 -15 -74 4 -92 21 -22 67 -20 87 2 21 23 22 66
1 86 -18 19 -75 21 -92 4z m91 -19 c28 -44 -25 -95 -72 -69 -24 12 -29 58 -9
78 17 17 68 11 81 -9z"/>
<path d="M23243 5268 l1 -38 61 2 60 1 -55 6 c-51 6 -55 8 -62 36 -6 28 -6 27
-5 -7z"/>
<path d="M23243 5158 l1 -38 61 2 60 1 -55 6 c-51 6 -55 8 -62 36 -6 28 -6 27
-5 -7z"/>
<path d="M23182 5013 l-2 -63 90 0 90 0 -2 63 -2 62 -3 -57 -4 -58 -34 0 c-33
0 -34 2 -38 43 l-4 42 -1 -42 -2 -43 -40 0 -39 0 -4 58 -3 57 -2 -62z"/>
<path d="M23243 4808 l1 -38 61 2 60 1 -55 6 c-51 6 -55 8 -62 36 -6 28 -6 27
-5 -7z"/>
<path d="M23252 4718 c-20 -20 -15 -76 7 -88 30 -15 66 -12 84 8 18 19 23 67
9 76 -5 3 -7 -8 -4 -23 4 -27 -18 -61 -39 -61 -5 0 -9 23 -9 50 0 41 -3 50
-18 50 -10 0 -23 -5 -30 -12z m38 -43 c0 -46 -7 -54 -28 -33 -16 16 -15 65 1
71 24 10 27 6 27 -38z"/>
<path d="M11140 4665 l0 -35 390 0 390 0 0 35 0 35 -390 0 -390 0 0 -35z"/>
<path d="M13575 4617 c-233 -129 -558 -336 -380 -241 223 119 560 324 532 324
-2 0 -70 -37 -152 -83z"/>
<path d="M23290 4562 l55 -26 -53 -24 c-29 -13 -52 -26 -49 -28 4 -5 117 45
117 52 0 7 -99 54 -112 53 -7 0 12 -12 42 -27z"/>
<path d="M23243 4428 l1 -38 61 2 60 1 -55 6 c-51 6 -55 8 -62 36 -6 28 -6 27
-5 -7z"/>
<path d="M13735 4379 c-170 -26 -450 -82 -437 -87 17 -5 271 34 447 69 215 44
210 53 -10 18z"/>
<path d="M23252 4328 c-20 -20 -15 -76 7 -88 30 -15 66 -12 84 8 18 19 23 67
9 76 -5 3 -7 -8 -4 -23 4 -27 -18 -61 -39 -61 -5 0 -9 23 -9 50 0 41 -3 50
-18 50 -10 0 -23 -5 -30 -12z m38 -43 c0 -46 -7 -54 -28 -33 -16 16 -15 65 1
71 24 10 27 6 27 -38z"/>
<path d="M23276 4168 c-7 -13 -16 -35 -20 -50 -5 -21 -12 -28 -31 -28 -31 0
-45 42 -25 74 12 19 12 20 -3 7 -41 -33 0 -114 45 -90 20 11 22 15 32 61 7 31
40 45 61 28 20 -17 19 -59 -2 -82 -9 -10 -12 -18 -7 -18 20 0 34 25 34 60 0
20 -5 41 -12 48 -19 19 -56 14 -72 -10z"/>
<path d="M23347 3966 c-5 -11 -27 -16 -89 -19 l-83 -3 88 -2 c71 -2 89 1 94
13 3 9 3 18 0 21 -2 3 -7 -2 -10 -10z"/>
<path d="M23252 3878 c-18 -18 -14 -73 6 -91 24 -22 65 -21 85 1 19 21 23 67
6 78 -8 4 -7 9 2 15 9 6 -4 9 -36 9 -28 0 -56 -5 -63 -12z m91 -19 c28 -44
-25 -95 -72 -69 -24 12 -29 58 -9 78 17 17 68 11 81 -9z"/>
<path d="M23257 3719 c-14 -8 -17 -21 -16 -55 l3 -44 60 2 61 1 -55 6 c-53 6
-55 7 -58 37 -4 39 12 52 68 57 l45 4 -45 1 c-25 1 -53 -3 -63 -9z"/>
<path d="M23243 3548 l1 -38 61 2 60 1 -55 6 c-51 6 -55 8 -62 36 -6 28 -6 27
-5 -7z"/>
<path d="M23252 3448 c-20 -20 -15 -76 7 -88 30 -15 66 -12 84 8 18 19 23 67
9 76 -5 3 -7 -8 -4 -23 4 -27 -18 -61 -39 -61 -5 0 -9 23 -9 50 0 41 -3 50
-18 50 -10 0 -23 -5 -30 -12z m38 -43 c0 -46 -7 -54 -28 -33 -16 16 -15 65 1
71 24 10 27 6 27 -38z"/>
<path d="M23241 3303 c-1 -17 -7 -23 -23 -24 -21 -1 -21 -2 -3 -6 11 -3 23
-10 27 -17 6 -8 8 -7 8 2 0 8 15 12 43 12 45 0 67 13 67 39 0 11 -5 9 -16 -7
-22 -31 -81 -31 -94 1 l-9 22 0 -22z"/>
<path d="M23257 3199 c-14 -8 -17 -21 -16 -55 l3 -44 60 2 61 1 -55 6 c-53 6
-55 7 -58 37 -4 39 12 52 68 57 l45 4 -45 1 c-25 1 -53 -3 -63 -9z"/>
<path d="M9085 2997 c-209 -50 -381 -92 -383 -93 -5 -3 380 -1097 390 -1108 5
-6 136 20 335 68 345 81 513 130 513 149 0 5 -19 112 -42 236 -23 124 -64 352
-92 506 l-51 280 -115 27 c-63 15 -128 27 -145 27 -16 -1 -201 -42 -410 -92z"/>
<path d="M13310 3063 c-58 -14 -107 -27 -109 -29 -2 -2 -34 -168 -71 -369 -37
-201 -70 -368 -72 -370 -3 -3 -24 2 -49 10 -24 7 -84 26 -132 40 -75 23 -87
29 -82 45 5 15 -5 22 -55 38 -33 12 -60 18 -60 14 -1 -33 -20 -31 -194 22 -98
31 -179 56 -180 58 -1 2 -8 16 -16 32 -30 60 -35 66 -55 66 -11 1 -354 1 -763
1 -730 0 -743 -1 -771 -20 -42 -30 -64 -92 -51 -142 33 -123 211 -136 257 -19
l16 40 553 0 553 0 19 -43 c32 -71 121 -99 188 -58 l32 19 108 -33 c60 -18
142 -42 181 -54 40 -12 72 -27 70 -33 -3 -15 105 -49 119 -37 8 7 259 -60 285
-77 3 -2 0 -34 -7 -71 -7 -37 -13 -73 -14 -80 0 -18 110 -51 492 -143 l356
-86 197 554 c108 305 192 558 188 562 -12 12 -768 190 -800 189 -15 -1 -75
-12 -133 -26z m-1270 -513 c0 -7 -195 -10 -565 -10 -370 0 -565 3 -565 10 0 7
195 10 565 10 370 0 565 -3 565 -10z"/>
<path d="M23223 3043 c26 -2 68 -2 95 0 26 2 4 3 -48 3 -52 0 -74 -1 -47 -3z"/>
<path d="M23202 2904 c-51 -36 -13 -84 67 -84 64 0 91 13 91 45 0 33 -36 55
-90 55 -25 0 -56 -7 -68 -16z m126 -10 c46 -32 16 -64 -62 -64 -42 0 -76 18
-76 40 0 17 45 40 80 40 20 0 46 -7 58 -16z"/>
<path d="M23202 2764 c-51 -36 -13 -84 67 -84 64 0 91 13 91 45 0 33 -36 55
-90 55 -25 0 -56 -7 -68 -16z m126 -10 c46 -32 16 -64 -62 -64 -42 0 -76 18
-76 40 0 17 45 40 80 40 20 0 46 -7 58 -16z"/>
<path d="M10777 2703 c-4 -3 -7 -19 -7 -35 l0 -28 746 0 745 0 -3 33 -3 32
-736 3 c-404 1 -739 -1 -742 -5z"/>
<path d="M23262 2628 c-7 -7 -12 -27 -12 -45 0 -30 -3 -33 -29 -33 -28 0 -30
3 -34 43 l-4 42 -1 -47 -2 -48 40 0 c39 0 40 1 40 33 0 38 15 57 46 57 48 0
57 -66 12 -88 -16 -7 -18 -11 -7 -11 20 -1 49 30 49 53 0 35 -20 56 -53 56
-18 0 -38 -5 -45 -12z"/>
<path d="M23188 2493 c6 -2 18 -2 25 0 6 3 1 5 -13 5 -14 0 -19 -2 -12 -5z"/>
<path d="M23188 2463 c7 -3 16 -2 19 1 4 3 -2 6 -13 5 -11 0 -14 -3 -6 -6z"/>
<path d="M10199 2422 l-47 -17 14 -52 c23 -91 42 -126 61 -118 10 3 37 11 61
18 30 8 41 16 38 27 -30 111 -50 160 -65 159 -9 0 -37 -8 -62 -17z"/>
<path d="M23240 2353 c0 -6 12 -18 26 -28 l27 -17 -29 -24 c-16 -13 -24 -23
-18 -24 6 0 17 7 24 15 17 20 32 19 64 -6 34 -27 34 -15 0 15 l-27 22 27 21
c14 12 26 24 26 28 0 3 -12 -3 -26 -14 -33 -26 -42 -26 -71 1 -13 12 -23 17
-23 11z"/>
<path d="M23268 2213 c17 -2 47 -2 65 0 17 2 3 4 -33 4 -36 0 -50 -2 -32 -4z"/>
<path d="M23182 2108 l-2 -68 93 2 c50 1 73 3 50 5 l-43 4 -2 47 -1 47 -6 -45
c-6 -44 -7 -45 -41 -45 l-35 0 -6 60 -6 60 -1 -67z"/>
<path d="M23252 1918 c-17 -17 -15 -74 4 -92 21 -22 67 -20 87 2 21 23 22 66
1 86 -18 19 -75 21 -92 4z m91 -19 c28 -44 -25 -95 -72 -69 -24 12 -29 58 -9
78 17 17 68 11 81 -9z"/>
<path d="M23241 1763 c-1 -17 -7 -23 -23 -24 -21 -1 -21 -2 -3 -6 11 -3 23
-10 27 -17 6 -8 8 -7 8 2 0 8 15 12 43 12 45 0 67 13 67 39 0 11 -5 9 -16 -7
-22 -31 -81 -31 -94 1 l-9 22 0 -22z"/>
<path d="M23244 1611 c3 -5 21 -12 41 -15 51 -10 52 -24 0 -37 -25 -6 -45 -15
-45 -20 0 -11 13 -12 26 -1 5 5 29 14 53 21 50 14 46 22 -23 45 -58 19 -59 19
-52 7z"/>
<path d="M23299 1516 c38 -13 36 -17 -22 -36 -21 -6 -36 -14 -34 -17 7 -6 117
29 117 37 0 7 -70 31 -86 29 -5 0 7 -6 25 -13z"/>
<path d="M23252 1418 c-17 -17 -15 -74 4 -92 21 -22 67 -20 87 2 21 23 22 66
1 86 -18 19 -75 21 -92 4z m91 -19 c28 -44 -25 -95 -72 -69 -24 12 -29 58 -9
78 17 17 68 11 81 -9z"/>
<path d="M23223 1253 l47 -4 0 -59 0 -59 -47 -4 c-27 -2 -5 -3 47 -3 52 0 76
1 53 3 l-43 4 0 59 0 59 43 4 c23 2 -1 3 -53 3 -52 0 -74 -1 -47 -3z"/>
</g>
</svg>
